<mxfile host="65bd71144e">
    <diagram id="FY6KlAi4AcI9_bgapyIB" name="Page-1">
        <mxGraphModel dx="854" dy="2192" grid="1" gridSize="10" guides="1" tooltips="1" connect="1" arrows="1" fold="1" page="1" pageScale="1" pageWidth="850" pageHeight="1400" math="0" shadow="0">
            <root>
                <mxCell id="0"/>
                <mxCell id="1" parent="0"/>
                <mxCell id="2" value="What do you need to roll?" style="swimlane;fontStyle=0;childLayout=stackLayout;horizontal=1;startSize=26;horizontalStack=0;resizeParent=1;resizeParentMax=0;resizeLast=0;collapsible=1;marginBottom=0;html=1;fillColor=#6d8764;strokeColor=#3A5431;fontColor=#ffffff;rounded=1;" vertex="1" parent="1">
                    <mxGeometry x="40" y="145" width="180" height="360" as="geometry">
                        <mxRectangle x="10" y="150" width="60" height="30" as="alternateBounds"/>
                    </mxGeometry>
                </mxCell>
                <mxCell id="3" value="&lt;span style=&quot;background-color: initial; font-size: 19px;&quot;&gt;d4&lt;/span&gt;" style="text;strokeColor=none;fillColor=none;align=left;verticalAlign=top;spacingLeft=4;spacingRight=4;overflow=hidden;rotatable=0;points=[[0,0.5],[1,0.5]];portConstraint=eastwest;whiteSpace=wrap;html=1;rounded=1;" vertex="1" parent="2">
                    <mxGeometry y="26" width="180" height="44" as="geometry"/>
                </mxCell>
                <mxCell id="4" value="&lt;font style=&quot;font-size: 19px;&quot;&gt;d6&lt;/font&gt;" style="text;strokeColor=none;fillColor=none;align=left;verticalAlign=top;spacingLeft=4;spacingRight=4;overflow=hidden;rotatable=0;points=[[0,0.5],[1,0.5]];portConstraint=eastwest;whiteSpace=wrap;html=1;rounded=1;" vertex="1" parent="2">
                    <mxGeometry y="70" width="180" height="38" as="geometry"/>
                </mxCell>
                <mxCell id="17" value="&lt;font style=&quot;font-size: 19px;&quot;&gt;d8&lt;/font&gt;" style="text;strokeColor=none;fillColor=none;align=left;verticalAlign=top;spacingLeft=4;spacingRight=4;overflow=hidden;rotatable=0;points=[[0,0.5],[1,0.5]];portConstraint=eastwest;whiteSpace=wrap;html=1;rounded=1;" vertex="1" parent="2">
                    <mxGeometry y="108" width="180" height="42" as="geometry"/>
                </mxCell>
                <mxCell id="18" value="&lt;font style=&quot;font-size: 19px;&quot;&gt;d10&lt;/font&gt;" style="text;strokeColor=none;fillColor=none;align=left;verticalAlign=top;spacingLeft=4;spacingRight=4;overflow=hidden;rotatable=0;points=[[0,0.5],[1,0.5]];portConstraint=eastwest;whiteSpace=wrap;html=1;rounded=1;" vertex="1" parent="2">
                    <mxGeometry y="150" width="180" height="36" as="geometry"/>
                </mxCell>
                <mxCell id="19" value="&lt;font style=&quot;font-size: 19px;&quot;&gt;d12&lt;/font&gt;" style="text;strokeColor=none;fillColor=none;align=left;verticalAlign=top;spacingLeft=4;spacingRight=4;overflow=hidden;rotatable=0;points=[[0,0.5],[1,0.5]];portConstraint=eastwest;whiteSpace=wrap;html=1;rounded=1;" vertex="1" parent="2">
                    <mxGeometry y="186" width="180" height="40" as="geometry"/>
                </mxCell>
                <mxCell id="20" value="&lt;font style=&quot;font-size: 19px;&quot;&gt;d20&lt;/font&gt;" style="text;strokeColor=none;fillColor=none;align=left;verticalAlign=top;spacingLeft=4;spacingRight=4;overflow=hidden;rotatable=0;points=[[0,0.5],[1,0.5]];portConstraint=eastwest;whiteSpace=wrap;html=1;rounded=1;" vertex="1" parent="2">
                    <mxGeometry y="226" width="180" height="44" as="geometry"/>
                </mxCell>
                <mxCell id="5" value="&lt;font style=&quot;font-size: 19px;&quot;&gt;d100&lt;/font&gt;" style="text;strokeColor=none;fillColor=none;align=left;verticalAlign=top;spacingLeft=4;spacingRight=4;overflow=hidden;rotatable=0;points=[[0,0.5],[1,0.5]];portConstraint=eastwest;whiteSpace=wrap;html=1;rounded=1;" vertex="1" parent="2">
                    <mxGeometry y="270" width="180" height="40" as="geometry"/>
                </mxCell>
                <mxCell id="39" value="ROLL" style="shape=ext;double=1;rounded=1;whiteSpace=wrap;html=1;shadow=1;glass=0;labelBackgroundColor=none;labelBorderColor=#3D3120;sketch=0;fontFamily=Lucida Console;fontSize=50;fontColor=#030202;fillColor=#4D3A33;opacity=90;" vertex="1" parent="2">
                    <mxGeometry y="310" width="180" height="50" as="geometry"/>
                </mxCell>
                <mxCell id="32" value="" style="shape=ext;double=1;rounded=1;whiteSpace=wrap;html=1;fillColor=#4D3A33;strokeColor=#3A5431;fontColor=#ffffff;glass=0;shadow=0;labelBackgroundColor=none;labelBorderColor=#3D3120;sketch=1;curveFitting=1;jiggle=2;" vertex="1" parent="1">
                    <mxGeometry x="270" y="140" width="530" height="370" as="geometry"/>
                </mxCell>
                <mxCell id="34" value="&lt;font face=&quot;Lucida Console&quot; color=&quot;#030202&quot; style=&quot;font-size: 50px;&quot;&gt;20&lt;/font&gt;" style="html=1;whiteSpace=wrap;shape=isoCube2;backgroundOutline=1;isoAngle=15;rounded=1;shadow=1;glass=0;labelBackgroundColor=none;labelBorderColor=#3D3120;fillColor=#fff2cc;rotation=0;strokeColor=#d6b656;gradientColor=#ffd966;" vertex="1" parent="1">
                    <mxGeometry x="465" y="247.49999999999997" width="140" height="145" as="geometry"/>
                </mxCell>
                <mxCell id="35" value="&lt;font style=&quot;font-size: 20px;&quot;&gt;YOU ROLLED A...&lt;/font&gt;" style="rounded=1;whiteSpace=wrap;html=1;shadow=0;glass=0;labelBackgroundColor=none;labelBorderColor=#3D3120;sketch=1;fillColor=#4D3A33;" vertex="1" parent="1">
                    <mxGeometry x="392.5" y="170" width="285" height="30" as="geometry"/>
                </mxCell>
                <mxCell id="37" value="" style="shape=ext;double=1;rounded=1;whiteSpace=wrap;html=1;shadow=1;glass=0;labelBackgroundColor=none;labelBorderColor=#3D3120;sketch=0;fontFamily=Lucida Console;fontSize=50;fontColor=#030202;fillColor=#4D3A33;opacity=90;" vertex="1" parent="1">
                    <mxGeometry x="40" y="560" width="760" height="380" as="geometry"/>
                </mxCell>
                <mxCell id="38" value="&lt;p&gt;&lt;b&gt;DnDice&lt;/b&gt;&lt;/p&gt;" style="shape=loopLimit;whiteSpace=wrap;html=1;rounded=1;shadow=1;glass=0;labelBackgroundColor=none;labelBorderColor=#3D3120;sketch=0;fontFamily=Lucida Console;fontSize=50;fillColor=#6d8764;opacity=90;strokeColor=#3A5431;fontColor=#ffffff;" vertex="1" parent="1">
                    <mxGeometry x="225" y="10" width="400" height="80" as="geometry"/>
                </mxCell>
                <mxCell id="45" value="" style="html=1;whiteSpace=wrap;shape=isoCube2;backgroundOutline=1;isoAngle=15;rounded=1;shadow=1;glass=0;labelBackgroundColor=none;labelBorderColor=#3D3120;sketch=0;strokeWidth=1;fontFamily=Lucida Console;fontSize=19;fontColor=#FCFCFC;fillColor=#4D3A33;opacity=90;rotation=45;" vertex="1" parent="1">
                    <mxGeometry x="210" y="770" width="90" height="100" as="geometry"/>
                </mxCell>
                <mxCell id="46" value="" style="html=1;whiteSpace=wrap;shape=isoCube2;backgroundOutline=1;isoAngle=15;rounded=1;shadow=1;glass=0;labelBackgroundColor=none;labelBorderColor=#3D3120;sketch=0;strokeWidth=1;fontFamily=Lucida Console;fontSize=19;fontColor=#FCFCFC;fillColor=#4D3A33;opacity=90;rotation=45;" vertex="1" parent="1">
                    <mxGeometry x="140" y="640" width="90" height="100" as="geometry"/>
                </mxCell>
                <mxCell id="47" value="" style="html=1;whiteSpace=wrap;shape=isoCube2;backgroundOutline=1;isoAngle=15;rounded=1;shadow=1;glass=0;labelBackgroundColor=none;labelBorderColor=#3D3120;sketch=0;strokeWidth=1;fontFamily=Lucida Console;fontSize=19;fontColor=#FCFCFC;fillColor=#4D3A33;opacity=90;rotation=45;" vertex="1" parent="1">
                    <mxGeometry x="290" y="640" width="90" height="100" as="geometry"/>
                </mxCell>
                <mxCell id="48" value="" style="html=1;whiteSpace=wrap;shape=isoCube2;backgroundOutline=1;isoAngle=15;rounded=1;shadow=1;glass=0;labelBackgroundColor=none;labelBorderColor=#3D3120;sketch=0;strokeWidth=1;fontFamily=Lucida Console;fontSize=19;fontColor=#FCFCFC;fillColor=#4D3A33;opacity=90;rotation=45;" vertex="1" parent="1">
                    <mxGeometry x="440" y="640" width="90" height="100" as="geometry"/>
                </mxCell>
                <mxCell id="49" value="" style="html=1;whiteSpace=wrap;shape=isoCube2;backgroundOutline=1;isoAngle=15;rounded=1;shadow=1;glass=0;labelBackgroundColor=none;labelBorderColor=#3D3120;sketch=0;strokeWidth=1;fontFamily=Lucida Console;fontSize=19;fontColor=#FCFCFC;fillColor=#4D3A33;opacity=90;rotation=45;" vertex="1" parent="1">
                    <mxGeometry x="580" y="650" width="90" height="100" as="geometry"/>
                </mxCell>
                <mxCell id="50" value="" style="html=1;whiteSpace=wrap;shape=isoCube2;backgroundOutline=1;isoAngle=15;rounded=1;shadow=1;glass=0;labelBackgroundColor=none;labelBorderColor=#3D3120;sketch=0;strokeWidth=1;fontFamily=Lucida Console;fontSize=19;fontColor=#FCFCFC;fillColor=#4D3A33;opacity=90;rotation=45;" vertex="1" parent="1">
                    <mxGeometry x="370" y="770" width="90" height="100" as="geometry"/>
                </mxCell>
                <mxCell id="51" value="" style="html=1;whiteSpace=wrap;shape=isoCube2;backgroundOutline=1;isoAngle=15;rounded=1;shadow=1;glass=0;labelBackgroundColor=none;labelBorderColor=#3D3120;sketch=0;strokeWidth=1;fontFamily=Lucida Console;fontSize=19;fontColor=#FCFCFC;fillColor=#4D3A33;opacity=90;rotation=45;" vertex="1" parent="1">
                    <mxGeometry x="510" y="770" width="90" height="100" as="geometry"/>
                </mxCell>
                <mxCell id="52" style="edgeStyle=none;html=1;fontFamily=Lucida Console;fontSize=20;fontColor=#FCFCFC;" edge="1" parent="1">
                    <mxGeometry relative="1" as="geometry">
                        <mxPoint x="220" y="280" as="sourcePoint"/>
                        <mxPoint x="220" y="280" as="targetPoint"/>
                    </mxGeometry>
                </mxCell>
            </root>
        </mxGraphModel>
    </diagram>
</mxfile>